<svg xmlns="http://www.w3.org/2000/svg" viewBox="0 0 20 20"><path d="M9.565 7.42C8.207 5.008 6.755 3.04 6.648 2.894 4.458 3.93 2.822 5.948 2.31 8.38c.207.004 3.483.043 7.255-.96zm.978 2.64c.102-.032.206-.063.31-.093-.198-.447-.413-.895-.638-1.336C6.17 9.844 2.287 9.756 2.15 9.75c-.003.085-.007.167-.007.25 0 2.02.763 3.862 2.016 5.253l-.006-.006s2.15-3.814 6.39-5.186zM5.17 16.195v-.004c-.057-.045-.12-.086-.177-.135.106.085.178.14.178.14zM8.12 2.372l-.015.004c.006-.002.014-.002.014-.002v-.002zm7.07 1.732C13.806 2.886 11.99 2.144 10 2.144c-.64 0-1.258.077-1.852.22.12.16 1.595 2.12 2.938 4.584 2.962-1.11 4.08-2.812 4.103-2.844zM10 19.2C4.92 19.2.8 15.08.8 10 .8 4.92 4.92.8 10 .8c5.082 0 9.2 4.12 9.2 9.2 0 5.08-4.118 9.2-9.2 9.2zm1.336-7.914c-4.61 1.607-6.134 4.838-6.165 4.904 1.335 1.04 3.007 1.666 4.83 1.666 1.087 0 2.124-.22 3.066-.62-.116-.69-.573-3.097-1.68-5.968l-.05.018zm.354-3.166c.184.373.358.754.523 1.14.06.134.114.27.17.405 2.713-.342 5.385.238 5.473.256-.02-1.862-.686-3.57-1.787-4.91-.02.022-1.28 1.842-4.38 3.11zm1.17 2.785c1.032 2.836 1.45 5.142 1.53 5.61 1.764-1.19 3.018-3.08 3.367-5.27-.156-.05-2.356-.746-4.896-.34z"/></svg>