<svg xmlns="http://www.w3.org/2000/svg" viewBox="0 0 20 20"><path d="M17 1H3c-1.1 0-2 .9-2 2v14c0 1.1.9 2 2 2h14c1.1 0 2-.9 2-2V3c0-1.1-.9-2-2-2zM9.984 15.523c3.06 0 5.538-2.48 5.538-5.54 0-.337-.043-.663-.103-.983H17v7.216c0 .382-.31.69-.693.69H3.693c-.383 0-.693-.308-.693-.69V9h1.55c-.062.32-.105.646-.105.984 0 3.06 2.48 5.54 5.54 5.54zm-3.46-5.54c0-1.91 1.55-3.46 3.46-3.46 1.912 0 3.463 1.55 3.463 3.46s-1.55 3.463-3.462 3.463c-1.913 0-3.462-1.55-3.462-3.462zM16.306 6h-1.615C14.31 6 14 5.688 14 5.308V3.69c0-.38.31-.69.69-.69h1.616c.384 0 .694.31.694.69v1.617c0 .38-.31.693-.693.693z"/></svg>